<?xml version="1.0" encoding="utf-8"?>
<!-- Generator: Adobe Illustrator 23.0.1, SVG Export Plug-In . SVG Version: 6.00 Build 0)  -->
<svg version="1.1" id="Layer_1" xmlns="http://www.w3.org/2000/svg" xmlns:xlink="http://www.w3.org/1999/xlink" x="0px" y="0px"
	 viewBox="0 0 42 42" style="enable-background:new 0 0 42 42;" xml:space="preserve">
<path class="st0" d="M27.1,24.5l-1.4-1.4c-0.2-0.2-0.6,0-0.6,0.3c0,0.3,0.4,0.4,0.6,0.1c1.5-1.9,2.3-4.3,2.3-6.9
	c0-6.3-5.1-11.4-11.4-11.4S5.2,10.3,5.2,16.6S10.3,28,16.6,28c2.5,0,4.9-0.8,6.8-2.3c0.2-0.2,0.1-0.5-0.2-0.5
	c-0.3,0-0.4,0.3-0.2,0.5l1.5,1.4l7.4,7.4c0.7,0.7,1.9,0.7,2.6,0c0.7-0.7,0.7-1.9,0-2.6L27.1,24.5z M16.6,24.5
	c-4.4,0-7.9-3.5-7.9-7.9s3.5-7.9,7.9-7.9s7.9,3.5,7.9,7.9S21,24.5,16.6,24.5z"/>
</svg>
