<svg id="Layer_1" data-name="Layer 1" xmlns="http://www.w3.org/2000/svg" xmlns:xlink="http://www.w3.org/1999/xlink" viewBox="0 0 757.36 192.02"><defs><style>.cls-1{fill:none;}.cls-2{font-size:132.49px;font-family:SFProRounded-Light, SFProRounded Light;font-weight:300;}.cls-2,.cls-3{fill:#e4e5f2;}.cls-3{font-size:176.65px;font-family:SFProRounded-Semibold, SFProRounded Semibold;font-weight:600;}.cls-4{fill:#0073aa;}.cls-5{fill:#0091c8;}.cls-6{clip-path:url(#clip-path);}.cls-7{fill:#2be279;}.cls-8{clip-path:url(#clip-path-2);}</style><clipPath id="clip-path" transform="translate(-121.32 -409.36)"><circle class="cls-1" cx="552.71" cy="493.35" r="70.66" transform="translate(-53.26 919.6) rotate(-76.88)"/></clipPath><clipPath id="clip-path-2" transform="translate(-121.32 -409.36)"><circle class="cls-1" cx="552.71" cy="493.18" r="70.66" transform="translate(-53.09 919.46) rotate(-76.88)"/></clipPath></defs><title>logo</title><text class="cls-2" transform="translate(0 145.38)">planet</text><text class="cls-3" transform="translate(515.39 147.85)">NE</text><path class="cls-4" d="M556.08,422.78a56,56,0,1,1-72.61,84.76,70.67,70.67,0,1,0,72.61-84.76Z" transform="translate(-121.32 -409.36)"/><path class="cls-5" d="M579.27,468.11a56,56,0,0,1-95.81,39.43,70.8,70.8,0,0,1,69.24-84.86c1.14,0,2.26.05,3.38.1A55.89,55.89,0,0,1,579.27,468.11Z" transform="translate(-121.32 -409.36)"/><g class="cls-6"><path class="cls-7" d="M531.8,490.12l-2.48-2.06a2.79,2.79,0,0,0-3.24-.25l-4.39,2.63a2.83,2.83,0,0,1-2.22.3l-5.59-1.6a2.82,2.82,0,0,1-2-2.05l-.42-1.79a2.83,2.83,0,0,0-2-2.06l-5.31-1.46a2.81,2.81,0,0,1-2-3.36l.06-.25a2.81,2.81,0,0,1,3.7-2L516.24,480a2.82,2.82,0,0,0,2.1-.07l4.38-1.95a2.83,2.83,0,0,0,1.45-1.48,70.7,70.7,0,0,0,2.67-7.07c0-.56,2-3,2.9-4a2.7,2.7,0,0,1,1-.75l3.34-1.42a2.81,2.81,0,0,1,3.5,1.14l.14.24a2.81,2.81,0,0,0,4.68.21l1.3-1.79a2.76,2.76,0,0,0,.49-2.19l-1.09-5.63a2.69,2.69,0,0,0-.42-1l-2.05-3.09a2.82,2.82,0,0,0-2.69-1.23l-10.34,1.32a2.86,2.86,0,0,1-1.91-.45l-1.28-.85,5.9-3a2.87,2.87,0,0,1,.62-.22l4.27-1a2.79,2.79,0,0,0,1.84-4l-.6-1.17a2.82,2.82,0,0,0-2.62-1.51l-7.64.34a2.78,2.78,0,0,1-2.17-.88l-5.46-5.8a2.81,2.81,0,0,0-3-.7l-26.6,10a2.79,2.79,0,0,0-1.75,2l-5.3,24a3,3,0,0,0,0,.9l1.22,11.36a2.78,2.78,0,0,0,1.54,2.21l5.77,2.89,8.47,3.91a2.82,2.82,0,0,1,1.27,1.17l3.6,6.4a2.78,2.78,0,0,1,.32.93l1.72,10.71a2.81,2.81,0,0,0,.55,1.28l5.17,6.67a2,2,0,0,0,.23.27l6.34,6.34a2.76,2.76,0,0,1,.66,1l6.16,17.13c0,.1.08.2.13.3l2.71,5.42a2.83,2.83,0,0,0,1.74,1.44l2.64.76A2.81,2.81,0,0,0,535.6,547h0a3.11,3.11,0,0,0,.07-.44l.43-6.27a2.87,2.87,0,0,1,.18-.81l4.4-11.44a2.89,2.89,0,0,1,.63-1l6.64-6.63a2.81,2.81,0,0,0,.82-2L549,505a2.78,2.78,0,0,0-.43-1.54l-4.36-6.94a2.82,2.82,0,0,0-1.18-1l-10.61-5A2.57,2.57,0,0,1,531.8,490.12Z" transform="translate(-121.32 -409.36)"/><path class="cls-7" d="M618.33,475.28l-3.09-1.18a2.85,2.85,0,0,0-1-.18H591.76l-10-.83a2.75,2.75,0,0,0-2.28.88l-2.27,2.42a2.91,2.91,0,0,0-.26.33l-5.55,8.12a2.78,2.78,0,0,0-.49,1.68l.41,11.46a2.8,2.8,0,0,0,.65,1.7l4.81,5.74a2.84,2.84,0,0,0,1.95,1l8.2.61.29,0,3.48.63a2.8,2.8,0,0,1,2.15,1.86l2.4,7a2.79,2.79,0,0,1-.19,2.26l-1.52,2.76a2.8,2.8,0,0,0-.29,1.94c.54,2.56,1.93,9.13,1.93,9.7s.42,9.62.61,13.84a2.8,2.8,0,0,0,2.18,2.6l4.73,1.08a2.81,2.81,0,0,0,2.63-.76l15.08-15.29a2.86,2.86,0,0,0,.8-1.8l1.37-22.3.93-16.54a3.17,3.17,0,0,0-.06-.75l-3.41-16A2.8,2.8,0,0,0,618.33,475.28Z" transform="translate(-121.32 -409.36)"/><path class="cls-7" d="M590.15,463.32l.85-.54a2.81,2.81,0,0,1,3.14.09l1.2.86a2.67,2.67,0,0,1,.9,1.07l1.59,3.32a2.8,2.8,0,0,0,2.39,1.59l7.28.39a2.81,2.81,0,0,0,2.71-4L608.32,462l5.59,6.55a2.8,2.8,0,0,0,3.2.78l.33-.13a2.81,2.81,0,0,0,1.73-2.76l-.32-5.82a2.79,2.79,0,0,0-.47-1.4c-2.23-3.3-12.68-18.35-21.31-23a2.81,2.81,0,0,0-4.14,2.37L592.6,447a2.71,2.71,0,0,1,0,.41l-.53,2.8a2.8,2.8,0,0,1-.72,1.41L588.14,455a3,3,0,0,1-.7.53l-6.13,3.35a2.78,2.78,0,0,0-1.45,2.26l-.27,3.56a2.79,2.79,0,0,0,.89,2.26l.74.7a2.8,2.8,0,0,0,3.75.07l4.85-4.17A2.85,2.85,0,0,1,590.15,463.32Z" transform="translate(-121.32 -409.36)"/></g><circle class="cls-5" cx="552.71" cy="493.34" r="70.66" transform="translate(-174.57 510.23) rotate(-76.88)"/><path class="cls-4" d="M552.71,422.68a70.72,70.72,0,0,0-7.61.42,56.32,56.32,0,1,1-62.64,62.63,70.66,70.66,0,1,0,70.25-63.05Z" transform="translate(-121.32 -409.36)"/><g class="cls-8"><path class="cls-7" d="M531.8,490l-2.48-2.06a2.8,2.8,0,0,0-3.24-.26l-4.39,2.64a2.79,2.79,0,0,1-2.22.29L513.88,489a2.84,2.84,0,0,1-2-2.05l-.42-1.79a2.81,2.81,0,0,0-2-2.06l-5.31-1.46a2.81,2.81,0,0,1-2-3.36l.06-.25a2.81,2.81,0,0,1,3.7-2l10.27,3.76a2.73,2.73,0,0,0,2.1-.07l4.38-1.94a2.82,2.82,0,0,0,1.45-1.49,70.73,70.73,0,0,0,2.67-7.06c0-.56,2-3,2.9-4a2.72,2.72,0,0,1,1-.76l3.34-1.41a2.8,2.8,0,0,1,3.5,1.14l.14.23a2.81,2.81,0,0,0,4.68.22l1.3-1.79a2.77,2.77,0,0,0,.49-2.19L543.14,455a2.74,2.74,0,0,0-.42-1l-2.05-3.08a2.8,2.8,0,0,0-2.69-1.23L527.64,451a2.86,2.86,0,0,1-1.91-.45l-1.28-.85,5.9-2.95a2.87,2.87,0,0,1,.62-.22l4.27-1a2.8,2.8,0,0,0,1.84-4l-.6-1.16a2.82,2.82,0,0,0-2.62-1.51l-7.64.34a2.84,2.84,0,0,1-2.17-.88l-5.46-5.8a2.81,2.81,0,0,0-3-.71l-26.6,10a2.78,2.78,0,0,0-1.75,2l-5.3,24a3,3,0,0,0,0,.9l1.22,11.36a2.8,2.8,0,0,0,1.54,2.21l5.77,2.89,8.47,3.91a2.72,2.72,0,0,1,1.27,1.17l3.6,6.39a2.83,2.83,0,0,1,.32.94l1.72,10.71a2.73,2.73,0,0,0,.55,1.27l5.17,6.68.23.27,6.34,6.34a2.68,2.68,0,0,1,.66,1L524.87,541a2.88,2.88,0,0,0,.13.31l2.71,5.42a2.87,2.87,0,0,0,1.74,1.44l2.64.76a2.81,2.81,0,0,0,3.51-2.07h0a3.35,3.35,0,0,0,.07-.44l.43-6.27a2.8,2.8,0,0,1,.18-.81l4.4-11.44a2.89,2.89,0,0,1,.63-1l6.64-6.64a2.77,2.77,0,0,0,.82-1.94l.21-13.52a2.77,2.77,0,0,0-.43-1.53l-4.36-6.94a2.85,2.85,0,0,0-1.18-1.05l-10.61-5A3.43,3.43,0,0,1,531.8,490Z" transform="translate(-121.32 -409.36)"/><path class="cls-7" d="M618.33,475.1l-3.09-1.17a2.65,2.65,0,0,0-1-.19H591.76l-10-.83a2.81,2.81,0,0,0-2.28.88l-2.27,2.43a2.91,2.91,0,0,0-.26.33l-5.55,8.11a2.83,2.83,0,0,0-.49,1.69l.41,11.46a2.8,2.8,0,0,0,.65,1.7l4.81,5.74a2.79,2.79,0,0,0,1.95,1l8.2.62.29,0,3.48.63a2.8,2.8,0,0,1,2.15,1.85l2.4,7a2.79,2.79,0,0,1-.19,2.26l-1.52,2.76a2.76,2.76,0,0,0-.29,1.93c.54,2.56,1.93,9.14,1.93,9.71s.42,9.62.61,13.84a2.8,2.8,0,0,0,2.18,2.6l4.73,1.08a2.79,2.79,0,0,0,2.63-.77l15.08-15.29a2.82,2.82,0,0,0,.8-1.8l1.37-22.3.93-16.54a3,3,0,0,0-.06-.74l-3.41-16A2.82,2.82,0,0,0,618.33,475.1Z" transform="translate(-121.32 -409.36)"/><path class="cls-7" d="M590.15,463.15l.85-.54a2.81,2.81,0,0,1,3.14.08l1.2.86a2.77,2.77,0,0,1,.9,1.08l1.59,3.32a2.8,2.8,0,0,0,2.39,1.59l7.28.38a2.81,2.81,0,0,0,2.71-4l-1.89-4.12,5.59,6.55a2.8,2.8,0,0,0,3.2.77l.33-.13a2.8,2.8,0,0,0,1.73-2.75l-.32-5.82a2.85,2.85,0,0,0-.47-1.41c-2.23-3.29-12.68-18.35-21.31-23a2.82,2.82,0,0,0-4.14,2.38l-.33,8.45a2.71,2.71,0,0,1,0,.41l-.53,2.8a2.8,2.8,0,0,1-.72,1.41l-3.17,3.36a2.79,2.79,0,0,1-.7.54l-6.13,3.34a2.8,2.8,0,0,0-1.45,2.26l-.27,3.57a2.79,2.79,0,0,0,.89,2.26l.74.7a2.81,2.81,0,0,0,3.75.07l4.85-4.18A2,2,0,0,1,590.15,463.15Z" transform="translate(-121.32 -409.36)"/></g></svg>